0
SECTION
2
HEADER
9
$INSUNITS
70
4
9
$ACADVER
1
AC1014
9
$HANDSEED
5
FFFF
0
ENDSEC
0
SECTION
2
TABLES
0
TABLE
2
VPORT
5
8
100
AcDbSymbolTable
0
ENDTAB
0
TABLE
2
LTYPE
5
5
100
AcDbSymbolTable
0
LTYPE
5
14
100
AcDbSymbolTableRecord
100
AcDbLinetypeTableRecord
2
BYBLOCK
70
0
0
LTYPE
5
15
100
AcDbSymbolTableRecord
100
AcDbLinetypeTableRecord
2
BYLAYER
70
0
0
LTYPE
5
16
100
AcDbSymbolTableRecord
100
AcDbLinetypeTableRecord
2
DASHED
70
0
3
Dashed __ __ __ __ __ __ __ __ __ __ __ __ __ _
72
65
73
2
40
0.75
49
0.5
74
0
49
-0.25
74
0
0
ENDTAB
0
TABLE
2
LAYER
5
2
100
AcDbSymbolTable
70
2
0
LAYER
5
50
100
AcDbSymbolTableRecord
100
AcDbLayerTableRecord
2
0
70
0
62
7
6
CONTINUOUS
0
ENDTAB
0
TABLE
2
STYLE
5
3
100
AcDbSymbolTable
70
1
0
STYLE
5
11
100
AcDbSymbolTableRecord
100
AcDbTextStyleTableRecord
2
STANDARD
70
0
0
ENDTAB
0
TABLE
2
VIEW
5
6
100
AcDbSymbolTable
70
0
0
ENDTAB
0
TABLE
2
UCS
5
7
100
AcDbSymbolTable
70
0
0
ENDTAB
0
TABLE
2
APPID
5
9
100
AcDbSymbolTable
70
2
0
APPID
5
12
100
AcDbSymbolTableRecord
100
AcDbRegAppTableRecord
2
ACAD
70
0
0
ENDTAB
0
TABLE
2
DIMSTYLE
5
A
100
AcDbSymbolTable
70
1
0
ENDTAB
0
TABLE
2
BLOCK_RECORD
5
1
100
AcDbSymbolTable
70
1
0
BLOCK_RECORD
5
1F
100
AcDbSymbolTableRecord
100
AcDbBlockTableRecord
2
*MODEL_SPACE
0
BLOCK_RECORD
5
1B
100
AcDbSymbolTableRecord
100
AcDbBlockTableRecord
2
*PAPER_SPACE
0
ENDTAB
0
ENDSEC
0
SECTION
2
BLOCKS
0
BLOCK
5
20
100
AcDbEntity
100
AcDbBlockBegin
2
*MODEL_SPACE
0
ENDBLK
5
21
100
AcDbEntity
100
AcDbBlockEnd
0
BLOCK
5
1C
100
AcDbEntity
100
AcDbBlockBegin
2
*PAPER_SPACE
0
ENDBLK
5
1D
100
AcDbEntity
100
AcDbBlockEnd
0
ENDSEC
0
SECTION
2
ENTITIES
0
LWPOLYLINE
5
100
100
AcDbEntity
8
0
100
AcDbPolyline
90
11
70
1
43
0.0
10
0
20
-2.0000000014146657
10
-5.5511151231257827e-16
20
26.083920649034056
42
-0.36597738186304252
10
2.4999999999999991
20
29.041960540583865
42
0.3659773818630444
10
5
20
32.000000432133682
10
5
20
144.00000003102721
42
-0.41421356437577417
10
3.0000000447022854
20
146
10
-313.00001647323654
20
146.00000216066846
42
-0.41421356037042345
10
-315.00000469387084
20
144.00001395370913
10
-315.00000469386589
20
-3.0000000000054925
42
-0.41421426068512596
10
-313
20
-5.0000000745058051
10
-2.9999999992926618
20
-5.0000000014146675
42
0.41421356230403628
0
LWPOLYLINE
5
101
100
AcDbEntity
8
0
100
AcDbPolyline
90
10
70
1
43
0.0
10
-2.2804506858076623
20
23.000000342726707
10
-307.71099543327983
20
23.000000342726707
10
-307.71099543327983
20
138.99977260463862
10
-184.10670799152174
20
138.99977260463862
10
-184.10670799152174
20
140.99977260463862
42
-0.0030781465645786359
10
-184.06977128268451
20
141
10
-184.06977128268451
20
139.00000000000003
10
-84.01117369001021
20
139.00000000000003
10
-84.011173690010253
20
139.00044315941062
10
-2.2804506858076579
20
139.00044315941057
0
LWPOLYLINE
5
102
100
AcDbEntity
8
0
100
AcDbPolyline
90
11
70
1
43
0.0
10
2.4999999999999991
20
29.041960540583865
42
0.36597738186304252
10
0
20
26.083920649034056
10
-6.6613381477509392e-15
20
-2.0000000014146653
42
-0.41421356230403628
10
-2.9999999992926618
20
-5.0000000014146675
10
-313
20
-5.0000000745058051
42
0.41421426068512612
10
-315.00000469386589
20
-3.000000000005496
10
-315.00000469387084
20
144.00001395370913
42
0.41421356037042345
10
-313.00001647323654
20
146.00000216066846
10
3.0000000447022854
20
146
42
0.41421356437577417
10
5
20
144.00000003102721
10
5
20
32.000000432133682
42
-0.3659773818630444
0
LWPOLYLINE
5
103
100
AcDbEntity
8
0
100
AcDbPolyline
90
10
70
1
43
0.0
10
-307.71099543327983
20
138.99977260463862
10
-184.10670799152174
20
138.99977260463862
10
-184.10670799152174
20
140.99977260463862
42
-0.0030781465645786359
10
-184.06977128268451
20
141
10
-184.06977128268451
20
139.00000000000003
10
-84.01117369001021
20
139.00000000000003
10
-84.011173690010253
20
139.00044315941062
10
-2.2804506858076579
20
139.00044315941057
10
-2.2804506858076623
20
23.000000342726707
10
-307.71099543327983
20
23.000000342726707
0
ENDSEC
0
SECTION
2
OBJECTS
0
DICTIONARY
5
C
100
AcDbDictionary
3
ACAD_GROUP
350
D
3
ACAD_MLINESTYLE
350
17
0
DICTIONARY
5
D
100
AcDbDictionary
0
DICTIONARY
5
1A
330
C
100
AcDbDictionary
0
DICTIONARY
5
17
100
AcDbDictionary
0
ENDSEC
0
EOF
